<?xml version="1.0" standalone="no"?>
<!DOCTYPE svg PUBLIC "-//W3C//DTD SVG 20010904//EN"
 "http://www.w3.org/TR/2001/REC-SVG-20010904/DTD/svg10.dtd">
<svg version="1.0" xmlns="http://www.w3.org/2000/svg"
 width="1280.000000pt" height="640.000000pt" viewBox="0 0 1280.000000 640.000000"
 preserveAspectRatio="xMidYMid meet">
<metadata>
Created by potrace 1.15, written by Vishal Bhamare 2001-2017
</metadata>
<g transform="translate(0.000000,640.000000) scale(0.100000,-0.100000)"
fill="#C4AD5E" stroke="none">
<path d="M5375 4619 c-146 -10 -230 -24 -299 -49 -43 -17 -54 -26 -65 -56 -7
-19 -15 -33 -18 -31 -2 3 1 15 7 27 24 45 12 42 -182 -46 -228 -103 -606 -315
-813 -455 -114 -77 -150 -111 -142 -133 6 -15 72 -53 117 -67 l25 -7 -25 -1
c-31 -1 -120 40 -140 64 -14 16 -36 17 -360 11 -190 -4 -473 -11 -630 -16
-157 -6 -553 -15 -882 -20 -566 -10 -676 -15 -898 -41 -194 -23 -366 -75 -434
-130 -46 -39 -64 -91 -42 -125 15 -22 15 -28 0 -72 -29 -84 2 -240 60 -301 13
-14 32 -55 42 -91 21 -78 63 -165 96 -201 54 -58 49 -57 389 -65 362 -8 335
-13 413 86 62 79 104 120 123 120 9 0 -2 -19 -32 -52 -327 -364 -221 -941 215
-1167 183 -95 383 -111 586 -47 302 96 514 392 514 717 l0 82 51 -67 c93 -124
176 -203 247 -238 l66 -33 196 -2 c307 -4 1958 -33 2455 -44 248 -5 860 -12
1360 -15 l911 -7 27 24 c16 13 40 46 55 73 33 61 48 67 57 24 12 -57 91 -210
142 -273 104 -127 271 -229 432 -261 99 -19 277 -15 351 9 155 50 257 113 352
216 79 86 131 173 165 279 l27 82 37 0 c34 0 38 -3 41 -27 l3 -28 1035 -9
c772 -6 1050 -5 1090 3 67 14 140 66 163 114 10 19 20 57 23 84 6 44 13 55 84
124 92 89 104 119 98 228 -7 111 -27 143 -145 231 -129 97 -259 228 -311 316
-48 80 -52 102 -19 102 95 -2 233 14 270 30 84 38 99 88 38 129 -44 30 -92 42
-187 48 -43 3 -80 8 -83 11 -23 23 385 284 444 284 8 0 15 5 15 11 0 5 -5 7
-12 3 -6 -4 -298 -11 -647 -15 -523 -6 -675 -11 -856 -28 -535 -51 -1222 -145
-1640 -226 -44 -8 -147 -17 -230 -19 -82 -2 -128 -1 -101 3 l49 6 -54 46
c-214 182 -656 448 -1014 612 -154 71 -185 83 -185 70 0 -5 -7 -18 -15 -29
-14 -18 -14 -17 -4 8 10 24 9 31 -7 49 -57 63 -219 101 -544 129 -69 5 -149
13 -179 15 -299 29 -1373 44 -1676 24z m-392 -162 c-4 -8 -30 -38 -57 -68 -56
-62 -41 -36 19 34 41 47 52 57 38 34z m1705 -124 l-1 -48 -4 42 -4 43 -247 3
-247 2 253 3 252 2 -2 -47z m82 37 c0 -5 -2 -10 -4 -10 -3 0 -8 5 -11 10 -3 6
-1 10 4 10 6 0 11 -4 11 -10z m-1139 -7 c-237 -3 -317 -6 -323 -16 -5 -8 -8
-7 -8 6 0 16 21 17 323 15 l322 -3 -314 -2z m1337 0 c-21 -2 -57 -2 -80 0 -24
2 -7 4 37 4 44 0 63 -2 43 -4z m892 -50 c0 -7 -61 31 -73 46 -7 8 7 2 31 -14
23 -15 42 -30 42 -32z m-762 40 c-15 -2 -42 -2 -60 0 -18 2 -6 4 27 4 33 0 48
-2 33 -4z m75 -10 c-7 -2 -21 -2 -30 0 -10 3 -4 5 12 5 17 0 24 -2 18 -5z m92
-13 c13 -6 5 -7 -25 -3 -25 3 -47 7 -49 9 -9 8 55 2 74 -6z m-1959 -76 c-3 -8
-16 -14 -28 -13 l-23 0 23 9 c17 7 22 18 24 47 l1 38 4 -33 c3 -19 2 -40 -1
-48z m2017 59 c-7 -2 -19 -2 -25 0 -7 3 -2 5 12 5 14 0 19 -2 13 -5z m112 -24
c13 -6 5 -6 -20 -2 -22 3 -49 10 -60 14 -13 6 -5 6 20 2 22 -3 49 -10 60 -14z
m475 -5 c0 -2 -9 0 -20 6 -11 6 -20 13 -20 16 0 2 9 0 20 -6 11 -6 20 -13 20
-16z m-2722 -71 l-2 -78 -3 73 -4 73 -47 -6 c-26 -3 -58 -8 -72 -11 -14 -3
-21 -2 -17 2 7 8 74 20 125 23 21 1 22 -2 20 -76z m1770 -536 l187 -2 -192 -3
-193 -2 2 313 3 312 2 -307 3 -308 188 -3z m603 582 c62 -20 100 -40 49 -25
-14 4 -54 16 -90 26 -36 10 -56 19 -44 19 11 1 50 -8 85 -20z m444 -32 c16
-15 -48 20 -70 38 -11 9 -2 7 20 -6 22 -12 45 -26 50 -32z m-3004 9 c-7 -8
-16 -27 -21 -43 -6 -21 -8 -23 -9 -8 -1 20 24 65 36 65 3 0 0 -6 -6 -14z m497
-549 l227 -2 -232 -3 -233 -2 2 278 3 277 2 -272 3 -273 228 -3z m2192 527
c23 -9 39 -18 37 -20 -2 -3 -24 4 -48 15 -54 24 -45 27 11 5z m370 -20 c0 -2
-9 0 -20 6 -11 6 -20 13 -20 16 0 2 9 0 20 -6 11 -6 20 -13 20 -16z m-3221
-156 c-1 -90 -4 -147 -8 -128 -6 38 -3 290 5 290 2 0 3 -73 3 -162z m2991 112
c41 -21 71 -39 65 -39 -5 0 -44 18 -85 39 -41 21 -70 39 -65 39 6 0 44 -18 85
-39z m343 -23 c42 -27 77 -51 77 -54 0 -3 -12 3 -27 13 -16 10 -56 35 -90 57
-35 22 -63 41 -63 44 0 5 6 2 103 -60z m-163 -72 c0 -3 -22 6 -50 20 -27 14
-50 28 -50 30 0 3 23 -6 50 -20 28 -14 50 -28 50 -30z m368 -58 c50 -32 92
-61 92 -64 0 -3 -10 1 -22 9 -13 9 -57 37 -98 63 -41 26 -79 52 -85 58 -15 15
8 2 113 -66z m-216 -30 l23 -19 -25 14 c-14 8 -51 30 -82 48 -32 17 -58 34
-58 37 0 7 115 -58 142 -80z m-3356 21 c19 -23 19 -23 -2 -5 -39 33 -73 12
-89 -55 -6 -24 -12 -28 -39 -27 -29 2 -29 2 -4 6 19 3 30 13 37 35 24 67 63
86 97 46z m3511 -120 c56 -37 104 -72 108 -78 7 -11 -211 134 -230 153 -16 16
12 -1 122 -75z m310 -35 c51 -35 95 -69 99 -76 5 -6 -9 1 -30 16 -20 16 -74
54 -119 85 -84 56 -126 90 -72 57 17 -10 71 -47 122 -82z m-4004 49 c-10 -10
-20 -17 -22 -16 -6 5 20 34 30 34 5 0 1 -8 -8 -18z m450 -135 l92 -3 -97 -2
-98 -2 2 78 2 77 3 -72 4 -72 92 -4z m-235 46 c0 -43 -3 -63 -5 -45 -3 19 -9
30 -15 26 -6 -4 -6 1 1 14 6 11 11 34 11 51 0 17 2 31 5 31 3 0 4 -35 3 -77z
m-259 -18 l-24 -55 -55 2 -55 2 51 3 52 4 23 54 c13 29 26 51 28 49 2 -2 -7
-28 -20 -59z m145 14 c13 -26 13 -29 1 -19 -8 7 -15 19 -15 26 0 8 -9 14 -19
14 -13 0 -24 -13 -35 -40 -20 -51 -21 -48 12 -53 22 -3 20 -4 -10 -6 l-37 -1
16 38 c26 62 33 72 53 72 11 0 25 -13 34 -31z m-614 -10 c16 -6 10 -7 -20 -3
-25 4 -54 10 -65 15 -24 10 48 0 85 -12z m4418 -64 c34 -26 60 -50 58 -53 -3
-2 -13 3 -22 13 -10 9 -41 35 -71 57 -29 22 -53 43 -53 45 0 3 6 1 13 -4 6 -5
40 -31 75 -58z m-4340 48 c-10 -2 -26 -2 -35 0 -10 3 -2 5 17 5 19 0 27 -2 18
-5z m65 -10 c-7 -2 -21 -2 -30 0 -10 3 -4 5 12 5 17 0 24 -2 18 -5z m552 -3
c-3 -5 -12 -10 -18 -10 -7 0 -6 4 3 10 19 12 23 12 15 0z m385 6 c0 -3 -4 -8
-10 -11 -5 -3 -10 -1 -10 4 0 6 5 11 10 11 6 0 10 -2 10 -4z m-857 -13 c-13
-2 -33 -2 -45 0 -13 2 -3 4 22 4 25 0 35 -2 23 -4z m4452 -33 c21 -22 37 -40
34 -40 -3 0 -23 18 -44 40 -21 22 -37 40 -34 40 3 0 23 -18 44 -40z m-4362 23
c-13 -2 -33 -2 -45 0 -13 2 -3 4 22 4 25 0 35 -2 23 -4z m417 -34 c0 -7 -19
-8 -57 -3 -78 9 -79 14 -5 14 38 0 62 -4 62 -11z m1633 -26 c-122 -2 -324 -2
-450 0 -125 1 -25 2 222 2 248 0 350 -1 228 -2z m2445 0 c-15 -2 -42 -2 -60 0
-18 2 -6 4 27 4 33 0 48 -2 33 -4z m-1505 -10 c-35 -2 -91 -2 -125 0 -35 2 -7
3 62 3 69 0 97 -1 63 -3z m225 -10 c-26 -2 -71 -2 -100 0 -29 2 -8 3 47 3 55
0 79 -1 53 -3z m775 0 c-62 -2 -165 -2 -230 0 -65 1 -14 3 112 3 127 0 180 -2
118 -3z m-520 -10 c-7 -2 -21 -2 -30 0 -10 3 -4 5 12 5 17 0 24 -2 18 -5z"/>
<path d="M703 2868 c-54 -26 -73 -184 -29 -248 51 -75 187 -121 415 -139 149
-12 291 -14 316 -5 36 14 62 135 50 231 -11 92 -2 89 -315 96 l-272 6 -52 36
c-53 36 -76 41 -113 23z"/>
</g>
</svg>
