<?xml version="1.0" standalone="no"?>
<!DOCTYPE svg PUBLIC "-//W3C//DTD SVG 20010904//EN"
 "http://www.w3.org/TR/2001/REC-SVG-20010904/DTD/svg10.dtd">
<svg version="1.0" xmlns="http://www.w3.org/2000/svg"
 width="1280.000000pt" height="1280.000000pt" viewBox="0 0 1280.000000 1280.000000"
 preserveAspectRatio="xMidYMid meet">
<metadata>
Created by potrace 1.15, written by Peter Selinger 2001-2017
</metadata>
<g transform="translate(0.000000,1280.000000) scale(0.100000,-0.100000)"
fill="#000000" stroke="none">
<path d="M5560 11081 l-175 -120 -160 -290 -160 -289 -420 -4 c-464 -4 -471
-5 -631 -78 -149 -67 -336 -225 -469 -395 -285 -365 -528 -926 -711 -1644 -24
-96 -46 -176 -47 -178 -2 -2 -40 39 -83 91 l-79 94 -160 6 c-471 18 -777 28
-779 24 -2 -1 -28 -70 -59 -151 l-55 -148 35 -143 35 -144 95 -101 95 -101
381 0 c211 0 388 -4 396 -9 11 -7 4 -11 -25 -15 -106 -16 -241 -50 -318 -80
-400 -157 -695 -529 -756 -952 -8 -55 -10 -273 -8 -709 l4 -630 27 -97 c115
-412 407 -728 795 -858 l87 -29 6 -303 c5 -277 7 -308 26 -360 48 -128 135
-223 257 -283 104 -51 168 -57 549 -53 315 4 335 5 397 27 134 47 236 139 298
268 l37 78 5 295 5 295 2593 3 2592 2 0 -267 c0 -289 5 -327 56 -431 61 -125
219 -239 364 -262 85 -13 646 -13 730 0 143 23 294 127 358 248 60 113 62 131
62 528 l0 363 23 12 c12 7 47 31 78 55 244 187 419 482 464 781 21 140 22
1193 1 1333 -68 448 -389 831 -809 964 -62 19 -125 39 -142 43 -17 5 108 10
298 13 l327 5 79 93 c44 50 82 100 85 110 3 9 18 74 34 144 l29 126 -50 149
c-28 81 -51 150 -53 152 -4 4 -615 -16 -771 -25 l-102 -6 -73 -96 c-40 -53
-78 -102 -84 -110 -8 -11 -16 12 -33 99 -60 300 -170 687 -268 939 -63 161
-199 436 -277 558 -244 382 -528 620 -841 704 -60 16 -124 19 -442 25 l-372 6
-183 338 -183 337 -172 72 -172 71 -393 9 c-216 5 -532 11 -703 15 l-310 6
-175 -120z m845 29 c799 -15 694 -6 872 -80 l153 -64 187 -347 188 -347 395
-5 c448 -5 446 -5 616 -87 300 -145 553 -433 769 -875 133 -270 223 -522 310
-861 44 -171 125 -555 125 -594 0 -11 3 -20 8 -20 4 0 63 72 131 160 105 136
127 160 154 164 26 4 650 27 724 26 19 0 27 -15 59 -114 l38 -114 -27 -122
-27 -122 -68 -78 -67 -78 -349 -1 -348 -1 -84 -62 c-46 -34 -81 -64 -79 -68 2
-4 53 -10 112 -13 170 -10 328 -57 477 -142 106 -60 169 -110 265 -211 160
-166 258 -361 296 -590 14 -86 16 -179 13 -714 l-3 -615 -27 -97 c-59 -216
-164 -395 -320 -544 -52 -49 -121 -107 -155 -129 l-62 -40 -3 -385 c-3 -367
-4 -388 -25 -443 -43 -115 -139 -214 -250 -258 -56 -23 -69 -24 -398 -27 -366
-4 -420 1 -513 45 -75 35 -152 114 -193 198 l-34 69 -5 326 -5 325 -2667 3
-2666 2 -4 -312 c-3 -292 -5 -317 -25 -371 -43 -115 -139 -214 -250 -258 -56
-23 -69 -24 -398 -27 -231 -2 -359 0 -400 8 -133 26 -246 113 -307 237 l-33
68 -3 333 c-2 246 -6 334 -15 337 -282 83 -420 159 -579 319 -192 193 -305
440 -328 721 -13 155 -13 965 0 1120 39 468 337 853 775 999 99 33 227 56 315
56 74 0 80 5 80 63 0 28 -8 37 -65 75 l-65 42 -379 0 -379 0 -74 81 -73 81
-31 122 -30 121 39 105 c22 58 43 109 47 113 7 8 584 -7 767 -19 l82 -6 117
-139 c110 -131 134 -151 134 -111 0 28 98 418 146 579 297 1010 686 1593 1169
1754 68 23 80 23 512 27 l442 3 171 307 172 307 152 102 c149 100 152 102 211
102 33 1 299 -3 590 -9z"/>
<path d="M6235 10875 c-16 -47 -32 -85 -35 -85 -3 0 -4 36 -2 80 l4 80 -316 0
-316 0 0 -115 0 -115 105 0 105 0 0 -275 0 -275 210 0 c242 0 213 -13 260 124
l27 81 65 3 66 3 37 -106 38 -105 122 0 122 0 63 95 c34 52 65 95 69 95 3 0
33 -42 66 -93 l60 -92 160 0 160 0 3 388 2 387 -172 -2 -171 -3 -51 -82 c-28
-46 -54 -83 -58 -83 -3 0 -30 38 -60 85 l-53 85 -138 0 -137 0 127 -190 126
-190 -47 -70 c-25 -38 -48 -70 -50 -70 -2 0 -48 119 -102 265 l-98 265 -81 0
-81 0 -29 -85z m-117 -37 l3 -38 -105 0 -106 0 0 -276 0 -275 -27 3 -28 3 -2
270 -2 270 -101 3 -100 3 0 40 0 39 233 -2 232 -3 3 -37z m369 -267 c62 -168
113 -309 113 -314 0 -4 -14 -7 -32 -5 -31 3 -33 7 -68 103 l-35 100 -120 3
-120 2 -36 -102 c-35 -99 -37 -103 -68 -106 -17 -2 -31 1 -31 6 0 5 50 141
110 303 61 162 112 300 115 307 3 8 16 12 31 10 26 -3 33 -19 141 -307z m288
184 c44 -69 82 -125 85 -124 3 0 39 55 81 122 l76 122 104 0 104 0 3 -313 2
-313 -102 3 -102 3 -80 127 c-45 70 -83 127 -86 127 -3 1 -43 -58 -89 -129
l-83 -130 -39 0 c-21 0 -39 2 -39 4 0 2 47 75 104 161 l104 158 -99 148 c-54
82 -99 151 -99 154 0 3 17 5 38 5 37 0 38 -1 117 -125z m-605 -44 c0 -9 -170
-464 -176 -470 -2 -2 -4 104 -4 237 l0 242 90 0 c50 0 90 -4 90 -9z"/>
<path d="M6327 10634 c-9 -26 -15 -49 -13 -51 2 -3 17 -3 33 -1 l30 3 -16 48
-16 48 -18 -47z"/>
<path d="M7040 10718 c-47 -72 -86 -136 -88 -143 -1 -6 38 -73 88 -149 l90
-138 0 281 c0 154 -1 281 -2 280 -2 0 -41 -59 -88 -131z"/>
<path d="M4670 9945 c-138 -30 -272 -91 -410 -186 -448 -306 -762 -918 -905
-1763 -32 -188 -59 -415 -51 -424 4 -3 555 -9 1224 -13 669 -4 2100 -13 3180
-19 1080 -7 1966 -10 1969 -6 9 9 -23 234 -58 406 -127 627 -337 1133 -615
1476 -204 253 -443 409 -724 476 -80 19 -133 21 -920 28 -459 4 -997 11 -1195
14 -198 3 -542 8 -765 11 -223 3 -463 7 -535 10 -91 3 -150 0 -195 -10z m1245
-86 c429 -6 1118 -14 1530 -18 l750 -8 100 -26 c120 -32 292 -115 390 -189
414 -313 736 -984 883 -1840 l29 -168 -326 0 c-486 0 -3606 19 -4136 25 -253
2 -749 5 -1102 5 l-643 0 0 33 c0 53 38 300 75 482 87 436 234 818 426 1105
169 254 344 413 574 526 172 84 230 95 470 89 110 -3 551 -10 980 -16z"/>
<path d="M9721 6939 c-260 -51 -471 -240 -526 -470 -72 -306 114 -610 440
-720 61 -21 89 -24 215 -24 125 0 155 3 215 23 181 61 321 176 396 327 42 86
59 157 59 255 0 169 -51 291 -175 416 -67 68 -96 89 -175 127 -142 69 -309 94
-449 66z m294 -89 c273 -70 462 -327 426 -580 -38 -266 -290 -471 -581 -473
-112 -1 -187 16 -286 64 -195 92 -314 271 -314 468 1 91 12 145 46 217 70 148
222 267 394 309 84 21 224 18 315 -5z"/>
<path d="M2805 6815 c-223 -60 -399 -211 -465 -397 -104 -295 29 -601 323
-742 202 -98 425 -100 623 -6 339 162 461 543 273 856 -77 128 -249 249 -410
288 -80 20 -273 20 -344 1z m340 -81 c199 -51 374 -225 414 -412 37 -175 -17
-341 -153 -470 -84 -79 -166 -125 -272 -152 -339 -87 -687 119 -745 441 -27
150 29 318 145 434 158 157 385 216 611 159z"/>
<path d="M3990 6565 l0 -115 2440 0 2440 0 0 115 0 115 -2440 0 -2440 0 0
-115z m4805 0 l0 -35 -2362 0 -2363 0 0 35 0 35 2363 0 2362 0 0 -35z"/>
<path d="M3990 6255 l0 -115 2420 0 2420 0 0 115 0 115 -2420 0 -2420 0 0
-115z m4770 0 l0 -35 -2345 0 -2345 0 0 35 0 35 2345 0 2345 0 0 -35z"/>
<path d="M3960 5905 l0 -155 2475 0 2475 0 0 155 0 155 -2475 0 -2475 0 0
-155z m4870 5 l0 -80 -2400 0 -2400 0 0 73 c0 41 3 77 7 80 3 4 1083 7 2400 7
l2393 0 0 -80z"/>
<path d="M5235 5249 c-135 -20 -278 -132 -325 -256 -46 -120 -36 -274 26 -379
35 -60 125 -141 191 -172 l58 -27 1400 0 1400 0 67 32 c169 80 270 270 239
449 -33 188 -181 330 -369 355 -87 11 -2608 9 -2687 -2z m2720 -84 c119 -31
209 -118 247 -237 22 -73 23 -118 2 -189 -31 -109 -110 -194 -219 -235 -48
-18 -97 -19 -1405 -19 l-1355 0 -67 33 c-82 40 -149 111 -178 190 -29 76 -25
205 9 270 49 96 147 172 245 192 22 4 631 8 1351 9 1148 1 1318 -1 1370 -14z"/>
</g>
</svg>
