<?xml version="1.0" standalone="no"?>
<!DOCTYPE svg PUBLIC "-//W3C//DTD SVG 20010904//EN"
 "http://www.w3.org/TR/2001/REC-SVG-20010904/DTD/svg10.dtd">
<svg version="1.0" xmlns="http://www.w3.org/2000/svg"
 width="1280.000000pt" height="770.000000pt" viewBox="0 0 1280.000000 770.000000"
 preserveAspectRatio="xMidYMid meet">
<metadata>
Created by potrace 1.15, written by Vishal Bhamare 2001-2017
</metadata>
<g transform="translate(0.000000,770.000000) scale(0.100000,-0.100000)"
fill="#000000" stroke="none">
<path d="M9900 7679 c-36 -11 -98 -29 -139 -40 -185 -50 -320 -128 -466 -271
l-71 -68 -249 -90 c-138 -50 -269 -97 -292 -106 -50 -18 -63 -50 -63 -150 l0
-61 -187 -41 c-104 -23 -200 -42 -214 -42 -64 0 -107 -78 -94 -175 11 -90 67
-151 115 -125 21 11 414 100 442 100 10 0 18 -4 18 -9 0 -15 -71 -101 -84
-101 -7 0 -21 -9 -31 -20 -18 -20 -18 -21 2 -48 37 -49 83 -37 83 22 0 22 8
40 25 56 14 13 25 18 25 11 0 -6 27 -58 61 -115 136 -234 224 -481 375 -1055
102 -388 184 -673 244 -843 45 -130 51 -154 62 -290 44 -532 -142 -1061 -517
-1468 -163 -177 -327 -306 -502 -394 -494 -247 -1081 -319 -1768 -215 -219 33
-555 108 -700 156 -162 53 -326 142 -420 226 -39 36 -40 36 -14 37 18 0 28 -6
32 -20 8 -30 24 -24 37 14 8 26 8 46 0 75 -12 47 -26 52 -40 16 -8 -22 -15
-25 -59 -25 -45 0 -53 3 -74 33 -70 93 -123 247 -133 387 -29 390 237 932 669
1364 l119 118 28 -49 c34 -60 72 -81 114 -62 23 11 66 64 66 83 0 15 -28 4
-49 -20 -33 -37 -69 -30 -98 21 -13 22 -23 43 -23 47 0 8 110 92 114 86 13
-19 26 -65 26 -88 0 -38 26 -40 33 -4 4 24 -3 71 -17 104 -4 11 7 22 39 39
103 55 144 143 91 196 -35 35 -96 63 -155 71 l-51 7 0 123 0 124 213 0 c236 0
237 1 273 70 30 55 27 261 -4 354 -46 137 -112 236 -158 236 -8 0 -67 -15
-132 -34 -245 -72 -397 -91 -672 -83 -344 11 -534 60 -1048 274 -174 72 -215
93 -257 132 -65 61 -107 85 -179 106 -118 34 -238 4 -323 -82 l-43 -43 29 -57
c105 -206 339 -431 566 -543 115 -57 194 -80 278 -80 54 0 63 -3 106 -39 117
-97 270 -179 407 -217 33 -9 115 -19 184 -23 l125 -6 -85 -56 c-47 -31 -116
-72 -155 -91 l-70 -35 -355 -12 c-195 -7 -394 -16 -442 -20 l-88 -6 0 37 c0
20 -7 43 -15 51 -33 34 -185 47 -287 26 -59 -12 -78 -29 -78 -70 0 -55 6 -59
94 -61 l81 -1 -65 -9 c-122 -16 -603 -20 -935 -8 -181 7 -503 15 -715 19 -426
7 -426 7 -449 73 -7 20 -11 175 -11 443 l0 413 -22 6 c-35 9 -87 7 -109 -4
-18 -10 -19 -25 -19 -388 0 -207 5 -410 10 -450 16 -126 69 -186 185 -212 81
-18 83 -37 16 -175 -43 -90 -141 -233 -210 -308 -14 -16 -93 -67 -176 -114
-82 -47 -203 -121 -268 -164 l-118 -79 -245 0 -245 0 -256 -155 -257 -155 -77
0 c-89 0 -89 0 -89 -91 l0 -59 38 0 39 0 6 -191 c3 -105 7 -192 9 -194 2 -2
58 -5 126 -6 67 -1 122 -3 122 -5 0 -1 -22 -38 -49 -82 -193 -311 -329 -667
-397 -1038 -14 -79 -14 -96 -3 -120 19 -39 76 -65 154 -72 58 -4 63 -6 55 -23
-6 -10 -10 -20 -10 -23 0 -3 108 -6 239 -6 l240 0 33 -30 c36 -34 78 -50 151
-59 l49 -6 40 -90 c54 -121 65 -155 83 -260 67 -377 303 -731 639 -957 657
-440 1544 -291 2030 341 150 194 272 493 293 713 5 62 8 68 28 68 31 0 105 27
127 47 48 43 5 103 -90 123 -49 11 -49 11 -56 57 -3 26 -4 48 -2 50 2 2 99 1
215 -3 207 -7 211 -7 211 -29 0 -11 13 -41 28 -66 33 -51 111 -98 207 -123
121 -32 464 -41 1655 -41 1104 0 1524 8 1885 36 235 17 223 14 288 80 32 33
62 57 66 54 14 -8 148 42 220 81 254 139 511 426 686 765 25 49 47 89 49 89 2
0 -22 -62 -54 -137 -31 -76 -94 -237 -139 -358 -45 -121 -95 -254 -110 -295
l-28 -75 71 -7 c70 -6 320 7 350 18 9 3 16 2 16 -2 0 -5 -5 -60 -10 -122 -21
-260 27 -512 145 -759 208 -435 607 -740 1086 -830 142 -26 421 -24 555 5 202
43 391 122 559 233 108 72 324 289 397 399 115 176 186 346 229 550 30 139 33
418 6 555 -59 306 -204 581 -417 795 l-96 96 176 17 c168 17 359 50 482 84 69
19 69 16 -3 148 -74 133 -171 265 -285 384 -93 98 -101 108 -91 131 18 47 13
180 -11 232 -24 55 -76 114 -133 154 l-42 29 -316 4 c-309 3 -665 -10 -779
-30 -31 -5 -95 -16 -142 -24 -119 -20 -262 -57 -350 -92 l-76 -29 -79 26 c-44
14 -91 32 -105 40 l-25 14 40 7 c22 4 88 10 147 14 84 5 110 11 123 25 58 65
57 515 -2 570 -12 11 -73 27 -173 44 -250 44 -247 43 -254 74 -14 58 -71 223
-117 339 -69 173 -176 393 -317 650 -67 122 -140 270 -162 330 -43 112 -244
587 -259 612 -7 12 -14 10 -36 -8 -15 -11 -31 -21 -34 -21 -15 0 -53 97 -58
145 -9 87 49 143 170 166 88 16 252 -13 305 -54 8 -6 46 -5 110 3 176 23 203
36 223 115 5 22 19 56 30 75 48 82 93 189 117 279 24 89 26 111 26 291 -1 107
-5 209 -11 225 -7 24 -21 35 -64 52 -66 27 -124 28 -209 2z m-279 -4896 c-12
-20 -14 -14 -5 12 4 9 9 14 11 11 3 -2 0 -13 -6 -23z m-4021 -194 c0 -39 -13
-52 -24 -24 -4 12 -14 14 -39 10 -24 -5 -37 -2 -46 9 -12 14 -8 16 34 16 38 0
48 4 52 20 8 32 23 12 23 -31z"/>
<path d="M2170 5760 c-19 -19 -20 -29 -14 -133 3 -61 9 -205 13 -319 5 -147
11 -211 20 -222 11 -13 11 -16 -2 -16 -12 0 -16 -14 -19 -59 l-3 -59 160 -6
c88 -3 436 -7 774 -10 l613 -4 -6 46 c-3 24 -6 53 -6 63 0 11 -7 19 -15 19
-14 0 -14 4 1 31 13 26 17 83 21 327 6 285 5 298 -14 314 -17 16 -70 19 -569
27 -302 6 -636 13 -741 16 -184 5 -194 4 -213 -15z"/>
</g>
</svg>
